<svg xmlns="http://www.w3.org/2000/svg" xmlns:xlink="http://www.w3.org/1999/xlink" fill="none" version="1.1" width="199.0009765625" height="28" viewBox="0 0 199.0009765625 28"><defs><clipPath id="master_svg0_18_092745/1_07555"><rect x="177.0009994506836" y="4" width="20" height="20" rx="0"/></clipPath></defs><g><rect x="0" y="0" width="199.00100708007812" height="28" rx="6" fill="#FFF1EC" fill-opacity="1"/><g><g><path d="M7.92,6.68L7.92,8L15.26,8L15.26,9.9L9.04,9.9L9.04,11.18L15.26,11.18L15.26,13.12L7.26,13.12L7.26,14.44L24.74,14.44L24.74,13.12L16.740000000000002,13.12L16.740000000000002,11.18L23.02,11.18L23.02,9.9L16.740000000000002,9.9L16.740000000000002,8L24.08,8L24.08,6.68L19.64,6.68C19.98,6.0600000000000005,20.240000000000002,5.42,20.439999999999998,4.74L18.9,4.540001C18.740000000000002,5.26,18.48,5.98,18.14,6.68L13.96,6.68C13.66,5.9,13.36,5.2,13.04,4.58L11.52,4.82C11.879999999999999,5.38,12.2,6,12.48,6.68L7.92,6.68ZM15.4,14.96C15.32,15.52,15.18,16.060000000000002,15,16.58L7.72,16.58L7.72,17.939999999999998L14.34,17.939999999999998C14,18.48,13.58,18.96,13.059999999999999,19.380000000000003C11.780000000000001,20.4,9.7,21.18,6.8,21.72L7.4,23.12C10.66,22.44,12.940000000000001,21.52,14.24,20.34C14.92,19.7,15.5,18.98,15.94,18.14C17.259999999999998,20.54,20.119999999999997,22.18,24.52,23.06L25.28,21.7C21.34,21.04,18.68,19.78,17.3,17.939999999999998L24.3,17.939999999999998L24.3,16.58L16.560000000000002,16.58C16.7,16.14,16.8,15.64,16.880000000000003,15.12L15.4,14.96ZM30.82,10.32L30.82,11.620000000000001L36.42,11.620000000000001C34.96,13.82,32.980000000000004,15.58,30.48,16.86L31.24,18.14C33.879999999999995,16.6,35.980000000000004,14.5,37.54,11.82L37.54,17.32C37.54,17.92,37.260000000000005,18.22,36.739999999999995,18.22C36.08,18.22,35.379999999999995,18.18,34.64,18.119999999999997L34.94,19.46L37.22,19.46C38.34,19.46,38.92,18.86,38.92,17.68L38.92,11.620000000000001L41.4,11.620000000000001L41.4,10.32L38.92,10.32L38.92,7.88L37.54,7.88L37.54,10.32L30.82,10.32ZM44.1,5.54L27.9,5.54L27.9,23.02L29.3,23.02L29.3,22.12L42.7,22.12L42.7,23.02L44.1,23.02L44.1,5.54ZM29.3,20.8L29.3,6.859999999999999L42.7,6.859999999999999L42.7,20.8L29.3,20.8ZM50.28,14.6L50.28,23.02L51.68,23.02L51.68,14.66C52.68,15.5,53.66,16.5,54.64,17.7L55.44,16.46C54.88,15.9,54.3,15.36,53.68,14.84C54.32,14.4,54.92,13.8,55.46,13.08L54.6,12.24C54.02,13.06,53.4,13.68,52.76,14.1C52.4,13.84,52.04,13.58,51.68,13.34L51.68,13C52.74,11.66,53.52,10.32,54.02,8.96L54.02,7.779999999999999L51.22,7.779999999999999L51.92,7.5C51.64,6.640000000000001,51.26,5.68,50.76,4.640001L49.36,5.02C49.84,5.9,50.24,6.82,50.58,7.779999999999999L47.32,7.779999999999999L47.32,9.1L52.6,9.1C51.64,11.3,49.7,13.58,46.78,15.92L47.2,17.36C48.36,16.439999999999998,49.38,15.52,50.28,14.6ZM58.14,4.700001L58.14,22.98L59.56,22.98L59.56,12.76C60.86,13.68,62.46,15,64.34,16.68L65.2,15.44C63.28,13.88,61.4,12.48,59.56,11.280000000000001L59.56,4.700001L58.14,4.700001ZM79.08,4.66L79.08,13.56L76.2,13.56L76.2,22.94L77.56,22.94L77.56,22.04L82.9,22.04L82.9,22.94L84.28,22.94L84.28,13.56L80.5,13.56L80.5,9.66L85.1,9.66L85.1,8.3L80.5,8.3L80.5,4.66L79.08,4.66ZM77.56,20.68L77.56,14.9L82.9,14.9L82.9,20.68L77.56,20.68ZM74.86,5.46L67.7,5.46L67.7,17.98L69.02000000000001,17.98L69.02000000000001,6.779999999999999L73.56,6.779999999999999L73.56,17.98L74.86,17.98L74.86,5.46ZM70.64,8.18L70.64,14.78C70.6,16.58,70.34,18.04,69.82,19.16C69.25999999999999,20.24,68.3,21.1,66.92,21.76L67.7,22.98C69.16,22.28,70.22,21.32,70.86,20.08C71.5,18.759999999999998,71.86,17,71.9,14.78L71.9,8.18L70.64,8.18ZM72.58,18.58L71.64,19.48C72.78,20.7,73.68,21.84,74.34,22.92L75.38,21.9C74.62,20.8,73.7,19.7,72.58,18.58Z" fill="#FF4B10" fill-opacity="1"/></g></g><g><g transform="matrix(0,1,-1,0,98,-86)"><path d="M92,5.5L108,5.5Q108.0492,5.5,108.0975,5.509607Q108.14580000000001,5.519215,108.1913,5.53806Q108.2368,5.556906,108.2778,5.584265Q108.3187,5.611625,108.3536,5.646447Q108.3884,5.681269,108.4157,5.722215Q108.4431,5.763161,108.4619,5.808658Q108.4808,5.854155,108.4904,5.9024549Q108.5,5.9507543,108.5,6Q108.5,6.0492457,108.4904,6.0975451Q108.4808,6.145845,108.4619,6.191342Q108.4431,6.236839,108.4157,6.277785Q108.3884,6.318731,108.3536,6.353553Q108.3187,6.388375,108.2778,6.415735Q108.2368,6.443094,108.1913,6.46194Q108.14580000000001,6.480785,108.0975,6.490393Q108.0492,6.5,108,6.5L92,6.5Q91.9507543,6.5,91.9024549,6.490393Q91.854155,6.480785,91.808658,6.46194Q91.763161,6.443094,91.722215,6.415735Q91.681269,6.388375,91.646447,6.353553Q91.611625,6.318731,91.584265,6.277785Q91.556906,6.236839,91.53806,6.191342Q91.519215,6.145845,91.509607,6.0975451Q91.5,6.0492457,91.5,6Q91.5,5.9507543,91.509607,5.9024549Q91.519215,5.854155,91.53806,5.808658Q91.556906,5.763161,91.584265,5.722215Q91.611625,5.681269,91.646447,5.646447Q91.681269,5.611625,91.722215,5.584265Q91.763161,5.556906,91.808658,5.53806Q91.854155,5.519215,91.9024549,5.509607Q91.9507543,5.5,92,5.5Z" fill-rule="evenodd" fill="#FFBFAA" fill-opacity="1"/></g></g><g><g><g><path d="M100.08099945068359,8.719999999999999L100.08099945068359,10.120000000000001L103.72099945068359,10.120000000000001L103.72099945068359,14.94L99.08099945068359,14.94L99.08099945068359,16.34L116.9209994506836,16.34L116.9209994506836,14.94L112.2809994506836,14.94L112.2809994506836,10.120000000000001L115.94099945068359,10.120000000000001L115.94099945068359,8.719999999999999L112.2809994506836,8.719999999999999L112.2809994506836,4.640001L110.82099945068359,4.640001L110.82099945068359,8.719999999999999L105.1809994506836,8.719999999999999L105.1809994506836,4.559999L103.72099945068359,4.559999L103.72099945068359,8.719999999999999L100.08099945068359,8.719999999999999ZM105.1809994506836,14.94L105.1809994506836,10.120000000000001L110.82099945068359,10.120000000000001L110.82099945068359,14.94L105.1809994506836,14.94ZM105.1809994506836,17.04C103.5409994506836,18.8,101.5009994506836,20.36,99.08099945068359,21.68L100.08099945068359,22.96C102.52099945068359,21.56,104.58099945068359,19.9,106.2609994506836,18.02L105.1809994506836,17.04ZM110.9809994506836,17.08L109.94099945068359,18.08C112.4209994506836,19.8,114.3609994506836,21.42,115.7809994506836,22.94L116.9009994506836,21.8C115.30099945068359,20.24,113.3409994506836,18.66,110.9809994506836,17.08ZM127.04099945068359,4.620001L127.04099945068359,9.74L128.4609994506836,9.74L128.4609994506836,4.620001L127.04099945068359,4.620001ZM122.4809994506836,13.42L122.4809994506836,22.98L123.88099945068359,22.98L123.88099945068359,22.04L133.26099945068358,22.04L133.26099945068358,22.94L134.6609994506836,22.94L134.6609994506836,12.28L126.7009994506836,12.28C129.64099945068358,11.32,132.1209994506836,10.14,134.1209994506836,8.719999999999999C134.8409994506836,9.34,135.5009994506836,9.96,136.0609994506836,10.58L137.0609994506836,9.559999999999999C135.6209994506836,8.120000000000001,133.8609994506836,6.66,131.76099945068358,5.2L130.8009994506836,6.12C131.6209994506836,6.7,132.3809994506836,7.279999999999999,133.1009994506836,7.859999999999999C129.8609994506836,10.08,125.16099945068359,11.7,118.9809994506836,12.7L119.58099945068359,14C120.58099945068359,13.82,121.54099945068359,13.62,122.4809994506836,13.42ZM123.88099945068359,20.76L123.88099945068359,19.04L133.26099945068358,19.04L133.26099945068358,20.76L123.88099945068359,20.76ZM123.88099945068359,17.880000000000003L123.88099945068359,16.28L133.26099945068358,16.28L133.26099945068358,17.880000000000003L123.88099945068359,17.880000000000003ZM123.88099945068359,15.12L123.88099945068359,13.5L133.26099945068358,13.5L133.26099945068358,15.12L123.88099945068359,15.12ZM123.8609994506836,5.76C122.72099945068359,7.16,121.30099945068359,8.4,119.60099945068359,9.48L120.44099945068359,10.559999999999999C122.2009994506836,9.440000000000001,123.6809994506836,8.14,124.88099945068359,6.66L123.8609994506836,5.76Z" fill="#FF4B10" fill-opacity="1"/></g><g><path d="M147.14099945068358,6.4399999999999995C145.7809994506836,6.4399999999999995,144.6809994506836,6.82,143.8409994506836,7.6C142.9609994506836,8.379999999999999,142.4409994506836,9.46,142.3209994506836,10.84L143.9409994506836,10.84C144.0409994506836,9.879999999999999,144.3609994506836,9.14,144.92099945068358,8.620000000000001C145.4609994506836,8.1,146.20099945068358,7.859999999999999,147.1609994506836,7.859999999999999C148.0809994506836,7.859999999999999,148.8209994506836,8.08,149.3409994506836,8.559999999999999C149.8209994506836,9,150.0809994506836,9.620000000000001,150.0809994506836,10.42C150.0809994506836,11.219999999999999,149.8209994506836,11.84,149.3209994506836,12.28C148.8209994506836,12.7,148.1009994506836,12.92,147.14099945068358,12.92L146.0409994506836,12.92L146.0409994506836,14.2L147.20099945068358,14.2C148.20099945068358,14.2,148.9609994506836,14.42,149.5209994506836,14.9C150.0809994506836,15.38,150.3609994506836,16.04,150.3609994506836,16.9C150.3609994506836,17.740000000000002,150.0609994506836,18.439999999999998,149.5009994506836,19C148.8809994506836,19.58,148.0609994506836,19.880000000000003,147.0409994506836,19.880000000000003C146.14099945068358,19.880000000000003,145.4009994506836,19.619999999999997,144.8009994506836,19.14C144.1009994506836,18.560000000000002,143.7209994506836,17.7,143.6809994506836,16.58L142.0209994506836,16.58C142.14099945068358,18.18,142.70099945068358,19.4,143.7209994506836,20.24C144.5809994506836,20.92,145.6809994506836,21.28,147.0409994506836,21.28C148.5209994506836,21.28,149.7209994506836,20.86,150.64099945068358,20.02C151.5409994506836,19.2,152.0009994506836,18.14,152.0009994506836,16.84C152.0009994506836,16,151.76099945068358,15.3,151.2809994506836,14.74C150.8409994506836,14.18,150.20099945068358,13.78,149.3609994506836,13.52C150.92099945068358,13,151.70099945068358,11.92,151.70099945068358,10.32C151.70099945068358,9.120000000000001,151.2809994506836,8.18,150.4609994506836,7.48C149.6209994506836,6.779999999999999,148.5009994506836,6.4399999999999995,147.14099945068358,6.4399999999999995ZM159.14099945068358,6.4399999999999995C157.7809994506836,6.4399999999999995,156.6809994506836,6.82,155.8409994506836,7.6C154.9609994506836,8.379999999999999,154.4409994506836,9.46,154.3209994506836,10.84L155.9409994506836,10.84C156.0409994506836,9.879999999999999,156.3609994506836,9.14,156.92099945068358,8.620000000000001C157.4609994506836,8.1,158.20099945068358,7.859999999999999,159.1609994506836,7.859999999999999C160.08099945068358,7.859999999999999,160.8209994506836,8.08,161.3409994506836,8.559999999999999C161.8209994506836,9,162.08099945068358,9.620000000000001,162.08099945068358,10.42C162.08099945068358,11.219999999999999,161.8209994506836,11.84,161.3209994506836,12.28C160.8209994506836,12.7,160.1009994506836,12.92,159.14099945068358,12.92L158.0409994506836,12.92L158.0409994506836,14.2L159.20099945068358,14.2C160.20099945068358,14.2,160.9609994506836,14.42,161.5209994506836,14.9C162.08099945068358,15.38,162.3609994506836,16.04,162.3609994506836,16.9C162.3609994506836,17.740000000000002,162.0609994506836,18.439999999999998,161.5009994506836,19C160.8809994506836,19.58,160.0609994506836,19.880000000000003,159.0409994506836,19.880000000000003C158.14099945068358,19.880000000000003,157.4009994506836,19.619999999999997,156.8009994506836,19.14C156.1009994506836,18.560000000000002,155.7209994506836,17.7,155.6809994506836,16.58L154.0209994506836,16.58C154.14099945068358,18.18,154.70099945068358,19.4,155.7209994506836,20.24C156.5809994506836,20.92,157.6809994506836,21.28,159.0409994506836,21.28C160.5209994506836,21.28,161.7209994506836,20.86,162.64099945068358,20.02C163.5409994506836,19.2,164.0009994506836,18.14,164.0009994506836,16.84C164.0009994506836,16,163.76099945068358,15.3,163.2809994506836,14.74C162.8409994506836,14.18,162.20099945068358,13.78,161.3609994506836,13.52C162.9209994506836,13,163.70099945068358,11.92,163.70099945068358,10.32C163.70099945068358,9.120000000000001,163.2809994506836,8.18,162.4609994506836,7.48C161.6209994506836,6.779999999999999,160.5009994506836,6.4399999999999995,159.14099945068358,6.4399999999999995ZM171.20099945068358,6.4399999999999995C169.76099945068358,6.4399999999999995,168.58099945068358,6.92,167.70099945068358,7.88C166.8209994506836,8.82,166.3609994506836,10.1,166.3609994506836,11.7L168.0009994506836,11.7C168.0209994506836,10.440000000000001,168.3209994506836,9.48,168.8809994506836,8.84C169.4009994506836,8.16,170.1609994506836,7.84,171.14099945068358,7.84C172.0609994506836,7.84,172.8009994506836,8.08,173.3209994506836,8.559999999999999C173.8409994506836,9.04,174.1009994506836,9.7,174.1009994506836,10.58C174.1009994506836,11.5,173.7209994506836,12.36,173.0009994506836,13.14C172.6209994506836,13.54,171.8809994506836,14.12,170.76099945068358,14.92C169.2409994506836,15.96,168.2209994506836,16.82,167.6609994506836,17.46C166.70099945068358,18.52,166.2409994506836,19.7,166.2409994506836,21L175.76099945068358,21L175.76099945068358,19.54L168.26099945068358,19.54C168.5209994506836,18.58,169.5609994506836,17.48,171.3809994506836,16.259999999999998C172.8609994506836,15.26,173.8409994506836,14.48,174.3409994506836,13.96C175.26099945068358,12.96,175.7409994506836,11.84,175.7409994506836,10.6C175.7409994506836,9.36,175.3009994506836,8.34,174.4609994506836,7.58C173.6009994506836,6.82,172.5209994506836,6.4399999999999995,171.20099945068358,6.4399999999999995Z" fill="#FF4B10" fill-opacity="1"/></g></g><g><g><rect x="177.0009994506836" y="4" width="20" height="20" rx="0" fill="#000000" fill-opacity="0" style="mix-blend-mode:passthrough"/><g><rect x="177.0009994506836" y="4" width="20" height="20" rx="0" fill="#000000" fill-opacity="0" style="mix-blend-mode:passthrough"/><g clip-path="url(#master_svg0_18_092745/1_07555)"><g><g><g><path d="M184.4505744291992,20.716713989257812C183.9953252291992,20.261713989257814,183.9599864291992,19.535413989257812,184.3689144291992,19.038413989257812L184.44973442919922,18.949213989257814L189.3997374291992,14.000873989257812L184.44973542919922,9.050873989257813C183.99422432919923,8.595553989257812,183.95923842919922,7.868655989257812,184.3689154291992,7.371692989257813L184.44973542919922,7.282532989257812C184.90505142919923,6.827015589257813,185.63194742919922,6.7920209892578125,186.12891742919922,7.201692989257812L186.2180774291992,7.282532989257812L191.4622374291992,12.526693989257812C192.2384074291992,13.302833989257813,192.2792374291992,14.548053989257813,191.55557742919922,15.373373989257813L191.4622374291992,15.473373989257812L186.2180774291992,20.71751398925781C185.72985742919923,21.206113989257812,184.93795642919923,21.206113989257812,184.44973442919922,20.71751398925781L184.4505744291992,20.716713989257812Z" fill="#FF4B10" fill-opacity="1"/></g></g></g></g></g></g></g></g></g></svg>