<svg xmlns="http://www.w3.org/2000/svg" xmlns:xlink="http://www.w3.org/1999/xlink" fill="none" version="1.1" width="88" height="56" viewBox="0 0 88 56"><defs><clipPath id="master_svg0_4_019930"><rect x="0" y="0" width="88" height="56" rx="12"/></clipPath><clipPath id="master_svg1_4_019931/1_07968"><rect x="20" y="16" width="48" height="24" rx="0"/></clipPath></defs><g clip-path="url(#master_svg0_4_019930)"><rect x="0" y="0" width="88" height="56" rx="12" fill="#F4F4F4" fill-opacity="1"/><g><g><rect x="20" y="16" width="48" height="24" rx="0" fill="#000000" fill-opacity="0" style="mix-blend-mode:passthrough"/><g><rect x="20" y="16" width="48" height="24" rx="0" fill="#000000" fill-opacity="0" style="mix-blend-mode:passthrough"/><g clip-path="url(#master_svg1_4_019931/1_07968)"><rect x="20" y="16" width="48" height="24" rx="0" fill="#FFDDEE" fill-opacity="0" style="mix-blend-mode:passthrough"/><g><path d="M27.944,20.32L27.944,21.976L34.472,21.976L34.472,25.624000000000002L28.904,25.624000000000002L28.904,27.28L41.864000000000004,27.28L41.864000000000004,25.624000000000002L36.224000000000004,25.624000000000002L36.224000000000004,21.976L42.728,21.976L42.728,20.32L36.224000000000004,20.32L36.224000000000004,17.344L34.472,17.344L34.472,20.32L27.944,20.32ZM41.216,29.704L29.648,29.704L29.648,39.448L31.304000000000002,39.448L31.304000000000002,38.416L39.56,38.416L39.56,39.448L41.216,39.448L41.216,29.704ZM31.304000000000002,36.784L31.304000000000002,31.336L39.56,31.336L39.56,36.784L31.304000000000002,36.784ZM23.144,17.752L21.896,18.951999999999998C23.552,20.056,24.848,21.088,25.808,22.096L27.032,20.872C25.976,19.816,24.68,18.784,23.144,17.752ZM22.568,23.512L21.344,24.688000000000002C23.024,25.936,24.32,27.088,25.28,28.192L26.528,26.944000000000003C25.472,25.792,24.152,24.664,22.568,23.512ZM25.28,29.823999999999998C24.32,32.751999999999995,23.144,35.584,21.8,38.367999999999995L23.528,39.111999999999995C24.728,36.424,25.832,33.519999999999996,26.84,30.448L25.28,29.823999999999998ZM47.336,28L57.152,28C55.232,31.336,51.344,34.312,45.488,36.903999999999996L46.4,38.391999999999996C52.664,35.488,56.816,32.032,58.856,28L59.456,28L59.456,36.616C59.456,37.239999999999995,59.12,37.576,58.472,37.576C57.296,37.576,56.048,37.528,54.752,37.480000000000004L55.136,39.16L59.072,39.16C60.464,39.16,61.184,38.44,61.184,37.048L61.184,28L66.488,28L66.488,26.32L61.184,26.32L61.184,20.08L65.36,20.08L65.36,18.4L46.784,18.4L46.784,20.08L59.456,20.08L59.456,26.32L49.352000000000004,26.32C49.712,24.880000000000003,50.072,23.224,50.408,21.328L48.68,21.16C48.367999999999995,23.152,47.912,25.432000000000002,47.336,28Z" fill="#111111" fill-opacity="1" style="mix-blend-mode:passthrough"/></g></g></g></g></g></g></svg>