<svg xmlns="http://www.w3.org/2000/svg" xmlns:xlink="http://www.w3.org/1999/xlink" fill="none" version="1.1" width="44" height="68" viewBox="0 0 44 68"><g><g><g><ellipse cx="22" cy="22" rx="22" ry="22" fill="#F4F4F4" fill-opacity="1"/></g><g><path d="M35.0334,17.492016562499998C35.881,17.3274265625,36.7234,17.146406562499998,37.5601,16.9493065625L37.9297,18.4266465625C37.9755,18.6085165625,38,18.7997765625,38,18.9971265625C38,19.9248765625,37.4595,20.7173765625,36.6978,21.032076562500002L36.6978,25.7418765625C36.6978,28.0488765625,36.4894,30.3036765625,36.0916,32.4877765625C36.0373,32.780376562499995,35.7965,33.0008765625,35.5077,33.0009765625C35.5077,33.0009765625,30.6243,33.0009765625,30.6243,33.0008765625C30.2956,33.0008765625,30.029,32.715176562500005,30.029,32.3624765625L30.029,29.9134765625C27.5557,30.1975765625,25.0437,30.3432765625,22.5,30.3432765625C19.956200000000003,30.3432765625,17.4443,30.1975765625,14.97089,29.9134765625L14.97089,32.3624765625C14.97089,32.715176562500005,14.704419999999999,33.0008765625,14.37558,33.0008765625C14.37558,33.0009765625,9.49227,33.0009765625,9.49227,33.0009765625C9.20345,33.0008765625,8.96264,32.780376562499995,8.9084,32.4857765625C8.510629999999999,30.3036765625,8.30211,28.0488765625,8.30211,25.7418765625L8.30211,21.032076562500002C7.54052,20.7173765625,7,19.9248765625,7,18.9971265625C7,18.7997765625,7.0244758,18.6085165625,7.0702692,18.4266465625L7.439853,16.9493065625C8.27661,17.146406562499998,9.118970000000001,17.3274265625,9.96646,17.4904065625C11.13846,15.3134565625,12.396989999999999,13.223546562500001,13.734549999999999,11.2226265625C14.49464,10.0935165625,15.69672,9.3282125625,17.069699999999997,9.2239035625C18.861800000000002,9.0761604625,20.6726,9.0009765625,22.5,9.0009765625C24.3274,9.0009765625,26.1382,9.0761604625,27.9303,9.2239035625C29.3033,9.3282125625,30.5053,10.0935165625,31.2654,11.2226265625C32.603,13.223546562500001,33.8615,15.3134565625,35.0334,17.492016562499998ZM16.542160000000003,12.9508765625C16.8418,12.5104865625,17.322699999999998,12.214256562500001,17.8717,12.1788165625C19.3996,12.0609365625,20.9431,12.0009765625,22.5,12.0009765625C24.0569,12.0009765625,25.6003,12.0609365625,27.1283,12.1788165625C27.6773,12.214256562500001,28.1582,12.5104865625,28.4574,12.9510965625C29.4269,14.3709265625,30.3484,15.8427765625,31.2188,17.3653565625C28.3703,17.7842765625,25.4594,18.0009765625,22.5,18.0009765625C19.540599999999998,18.0009765625,16.62968,17.7842765625,13.78125,17.3653565625C14.651589999999999,15.8427765625,15.57313,14.3709265625,16.542160000000003,12.9508765625ZM10.93431,25.1502765625C12.26737,25.3883765625,13.61331,25.5859765625,14.97076,25.7415765625L14.97076,22.149576562500002C13.56096,21.9876765625,12.16371,21.7807765625,10.78035,21.5302765625C10.78035,22.7507765625,10.83238,23.9581765625,10.93431,25.1502765625ZM30.0294,25.7418765625C31.3869,25.5859765625,32.7328,25.3883765625,34.0659,25.1502765625C34.1678,23.9581765625,34.219899999999996,22.7507765625,34.219899999999996,21.5302765625C32.8365,21.7807765625,31.4392,21.9876765625,30.0294,22.149576562500002L30.0294,25.7418765625Z" fill-rule="evenodd" fill="#111111" fill-opacity="1"/></g></g><g><g><path d="M10.52,56.58C9.58,57.019999999999996,8.620000000000001,57.44,7.66,57.82L7.66,53.72L10.26,53.72L10.26,52.34L7.66,52.34L7.66,48.720001L6.18,48.720001L6.18,52.34L3.04,52.34L3.04,53.72L6.18,53.72L6.18,58.34C5.04,58.7,3.88,59,2.7199999999999998,59.26L3.08,60.62C4.12,60.34,5.140000000000001,60.019999999999996,6.18,59.7L6.18,64.74C6.18,65.24,5.92,65.5,5.4,65.5C4.8,65.5,4.16,65.46000000000001,3.48,65.42L3.8,66.82L5.9,66.82C7.06,66.82,7.66,66.24,7.66,65.12L7.66,59.18C8.620000000000001,58.82,9.58,58.44,10.52,58.019999999999996L10.52,56.58ZM10.88,50.22L10.88,51.62L16.2,51.62L16.2,64.56C16.2,65.16,15.92,65.48,15.38,65.48C14.4,65.48,13.38,65.44,12.3,65.4L12.6,66.78L15.88,66.78C17.08,66.78,17.68,66.16,17.68,64.92L17.68,51.62L20.92,51.62L20.92,50.22L10.88,50.22ZM23.76,51.24L23.76,52.64L27.76,52.64C26.78,54.44,25.7,55.96,24.54,57.16L24.86,58.480000000000004L31.52,58.480000000000004L31.52,61.42L23.46,61.42L23.46,62.82L31.52,62.82L31.52,67.12L32.980000000000004,67.12L32.980000000000004,62.82L40.56,62.82L40.56,61.42L32.980000000000004,61.42L32.980000000000004,58.480000000000004L39.14,58.480000000000004L39.14,57.16L32.980000000000004,57.16L32.980000000000004,54.22L31.52,54.22L31.52,57.16L26.36,57.16C27.44,55.84,28.42,54.34,29.32,52.64L40.22,52.64L40.22,51.24L30.02,51.24C30.36,50.48,30.7,49.7,31.02,48.880001L29.58,48.559999C29.22,49.5,28.84,50.4,28.46,51.24L23.76,51.24Z" fill="#888888" fill-opacity="1"/></g></g></g></svg>