<svg xmlns="http://www.w3.org/2000/svg" xmlns:xlink="http://www.w3.org/1999/xlink" fill="none" version="1.1" width="44" height="68" viewBox="0 0 44 68"><g><g><g><ellipse cx="22" cy="22" rx="22" ry="22" fill="#F4F4F4" fill-opacity="1"/></g><g><path d="M15.65939,27.5559765625C9.741163,21.870976562499997,7.35145,15.0504365625,10.19632,11.9857765625C10.42111,11.6598065625,10.64032,11.3974765625,10.88307,11.1642965625L12.10115,9.9954145625C13.483329999999999,8.6694975625,15.73432,8.6694975625,17.11712,9.9954145625L18.45162,11.2755265625C18.51231,11.3254965625,18.5507,11.358216562500001,18.58724,11.3933065625C20.0933,12.8393865625,20.2716,15.1700065625,19.0021,16.8129765625L18.94269,16.879596562499998C18.71171,17.1014765625,18.32158,17.7445065625,18.32158,18.7521865625C18.322200000000002,19.719376562500003,18.696849999999998,21.232076562499998,20.484,22.9476765625L20.489,22.952976562499998C23.4682,25.8100765625,25.944,25.0379765625,26.6462,24.498976562499998C28.3387,23.126676562500002,30.9117,23.2319765625,32.4895,24.7476765625L32.5589,24.8071765625L33.964600000000004,26.1556765625L33.9671,26.1580765625C34.6334,26.7986765625,35.0006,27.6528765625,35,28.5629765625C35.0006,29.4749765625,34.6328,30.3296765625,33.964600000000004,30.9703765625L32.7465,32.138676562499995C32.5942,32.2843765625,32.291399999999996,32.5264765625,32.1415,32.6448765625L32.0771,32.6960765625C28.9889,35.6589765625,21.7727,33.4187765625,15.67673,27.5719765625L15.65939,27.5559765625Z" fill-rule="evenodd" fill="#111111" fill-opacity="1"/><path d="" fill="#111111" fill-opacity="1"/></g></g><g><g><path d="M6.01693,57.0638L10.9388,57.0638L10.9388,60.0651L6.01693,60.0651L6.01693,57.0638ZM10.9388,61.399699999999996L10.9388,64.082C10.9388,65.8203,11.73958,66.70570000000001,13.3802,66.70570000000001L18.5169,66.70570000000001C19.4609,66.70570000000001,20.099,66.5234,20.457,66.1849C20.8216,65.8203,21.0365,64.7852,21.1602,63.0859L19.7995,62.6237C19.7214,63.9844,19.5781,64.7656,19.3763,65C19.1354,65.2214,18.7773,65.3451,18.276,65.3451L13.7188,65.3451C12.8398,65.3451,12.3971,64.8438,12.3971,63.8607L12.3971,61.399699999999996L18.875,61.399699999999996L18.875,51.44531L12.3971,51.44531L12.3971,48.704428L10.9388,48.704428L10.9388,51.44531L4.57812,51.44531L4.57812,63.1055L6.01693,63.1055L6.01693,61.399699999999996L10.9388,61.399699999999996ZM12.3971,60.0651L12.3971,57.0638L17.4557,57.0638L17.4557,60.0651L12.3971,60.0651ZM17.4557,55.74219L12.3971,55.74219L12.3971,52.79948L17.4557,52.79948L17.4557,55.74219ZM10.9388,52.79948L10.9388,55.74219L6.01693,55.74219L6.01693,52.79948L10.9388,52.79948ZM29.2005,54.50521L29.2005,55.90495L34.6758,55.90495L34.6758,59.1211L30.9388,59.1211L30.9388,66.9466L32.3581,66.9466L32.3581,65.944L38.4974,65.944L38.4974,66.9466L39.9362,66.9466L39.9362,59.1211L36.1406,59.1211L36.1406,55.90495L41.2969,55.90495L41.2969,54.50521L36.1406,54.50521L36.1406,51.15885C37.8203,50.92448,39.3177,50.5599,40.6003,50.104169999999996L39.8971,48.880209C37.1758,49.80469,33.738299999999995,50.260419999999996,29.5977,50.260419999999996L30.0143,51.5625C31.6745,51.5625,33.236999999999995,51.48438,34.6758,51.34115L34.6758,54.50521L29.2005,54.50521ZM32.3581,64.58330000000001L32.3581,60.4232L38.4974,60.4232L38.4974,64.58330000000001L32.3581,64.58330000000001ZM25.2357,48.860678L24.2396,49.84375C25.6784,50.92448,26.8372,51.95964,27.6771,52.94271L28.6602,51.9401C27.7357,50.90495,26.5964,49.88281,25.2357,48.860678ZM22.8398,54.78516L22.8398,56.165369999999996L25.776,56.165369999999996L25.776,64.1602C25.776,64.4661,25.6198,64.7461,25.3398,65L25.8997,66.2826C27.2799,65.3841,28.5755,64.362,29.7799,63.2031L29.3958,61.6862C28.5951,62.4609,27.8398,63.1445,27.1562,63.7044L27.1562,54.78516L22.8398,54.78516Z" fill="#888888" fill-opacity="1"/></g></g></g></svg>